<svg width="28" height="29" viewBox="0 0 28 29" fill="none" xmlns="http://www.w3.org/2000/svg">
<path d="M6.96875 19.9639H21.0225C21.9277 19.9639 22.4814 19.4717 22.4814 18.7334C22.4814 17.8018 21.6377 17.002 20.8467 16.2461C20.2227 15.6396 20.082 14.374 19.9678 13.2051C19.8271 9.98828 18.8867 7.7207 16.6104 6.90332C16.25 5.74316 15.292 4.84668 13.9912 4.84668C12.6992 4.84668 11.7412 5.74316 11.3721 6.90332C9.10449 7.7207 8.15527 9.98828 8.02344 13.2051C7.90918 14.374 7.75977 15.6396 7.14453 16.2461C6.35352 17.002 5.50977 17.8018 5.50977 18.7334C5.50977 19.4717 6.06348 19.9639 6.96875 19.9639ZM13.9912 23.585C15.5557 23.585 16.6895 22.4688 16.8037 21.1943H11.1875C11.3018 22.4688 12.4355 23.585 13.9912 23.585Z" fill="#1C1C1E"/>
</svg>
