<svg width="28" height="29" viewBox="0 0 28 29" fill="none" xmlns="http://www.w3.org/2000/svg">
<path d="M6.01953 22.3809H21.9629C23.8613 22.3809 24.8633 21.3965 24.8633 19.5156V10.2871C24.8633 8.40625 23.8613 7.42188 21.9629 7.42188H19.625C18.9395 7.42188 18.7197 7.30762 18.2891 6.85938L17.5947 6.1123C17.1377 5.62891 16.6719 5.3916 15.7754 5.3916H12.1631C11.2666 5.3916 10.8008 5.62891 10.3438 6.1123L9.64941 6.85938C9.22754 7.29883 8.99902 7.42188 8.31348 7.42188H6.01953C4.12109 7.42188 3.12793 8.40625 3.12793 10.2871V19.5156C3.12793 21.3965 4.12109 22.3809 6.01953 22.3809ZM13.9912 19.6211C11.3633 19.6211 9.25391 17.5117 9.25391 14.875C9.25391 12.2295 11.3633 10.1201 13.9912 10.1201C16.6279 10.1201 18.7373 12.2295 18.7373 14.875C18.7373 17.5117 16.6279 19.6211 13.9912 19.6211ZM19.2998 11.6406C19.2998 11.0166 19.8359 10.4717 20.4775 10.4717C21.1104 10.4717 21.6465 11.0166 21.6465 11.6406C21.6465 12.291 21.1104 12.8008 20.4775 12.8096C19.8359 12.8096 19.2998 12.2998 19.2998 11.6406ZM13.9912 18.0303C15.7402 18.0303 17.1465 16.624 17.1465 14.875C17.1465 13.1172 15.7402 11.7109 13.9912 11.7109C12.251 11.7109 10.8447 13.1172 10.8447 14.875C10.8447 16.624 12.2598 18.0303 13.9912 18.0303Z" fill="#1C1C1E"/>
</svg>
