<svg width="74" height="13" viewBox="0 0 74 13" fill="none" xmlns="http://www.w3.org/2000/svg">
<path d="M9.24641 8.13672H8.13313V0.507812H9.24641V8.13672ZM9.56281 10.7734H2.37922V7.36328H3.50422V9.87109H9.56281V10.7734ZM3.55109 1.21094C4.07453 1.21094 4.54719 1.32227 4.96906 1.54492C5.39484 1.76758 5.72883 2.07617 5.97102 2.4707C6.21711 2.86523 6.34016 3.3125 6.34016 3.8125C6.34016 4.32031 6.21711 4.77344 5.97102 5.17188C5.72883 5.56641 5.39484 5.875 4.96906 6.09766C4.54719 6.31641 4.07453 6.42578 3.55109 6.42578C3.02766 6.42578 2.55305 6.31641 2.12727 6.09766C1.70148 5.875 1.36555 5.56445 1.11945 5.16602C0.87336 4.76758 0.750313 4.31641 0.750313 3.8125C0.750313 3.3125 0.87336 2.86523 1.11945 2.4707C1.36555 2.07617 1.70148 1.76758 2.12727 1.54492C2.55305 1.32227 3.02766 1.21094 3.55109 1.21094ZM3.55109 2.18359C3.22688 2.18359 2.93391 2.25391 2.67219 2.39453C2.41438 2.53125 2.21125 2.72266 2.06281 2.96875C1.91438 3.21484 1.84016 3.49609 1.84016 3.8125C1.84016 4.13672 1.91242 4.42383 2.05695 4.67383C2.20539 4.91992 2.40852 5.11133 2.66633 5.24805C2.92805 5.38477 3.22297 5.45312 3.55109 5.45312C3.87141 5.45312 4.16047 5.38477 4.41828 5.24805C4.67609 5.11133 4.87922 4.91797 5.02766 4.66797C5.17609 4.41797 5.25031 4.13281 5.25031 3.8125C5.25031 3.5 5.17609 3.2207 5.02766 2.97461C4.87922 2.72461 4.67414 2.53125 4.41242 2.39453C4.15461 2.25391 3.8675 2.18359 3.55109 2.18359ZM20.2447 6.34375H10.6705V5.44141H20.2447V6.34375ZM15.4517 7.15234C16.2017 7.15234 16.8482 7.22852 17.3912 7.38086C17.9341 7.5293 18.3502 7.74805 18.6392 8.03711C18.9283 8.32617 19.0728 8.67188 19.0728 9.07422C19.0728 9.47656 18.9283 9.82031 18.6392 10.1055C18.3502 10.3906 17.9341 10.6074 17.3912 10.7559C16.8482 10.9043 16.2017 10.9766 15.4517 10.9727C14.6978 10.9766 14.0474 10.9043 13.5005 10.7559C12.9537 10.6074 12.5338 10.3906 12.2408 10.1055C11.9517 9.82031 11.8072 9.47656 11.8072 9.07422C11.8072 8.67188 11.9517 8.32617 12.2408 8.03711C12.5338 7.74805 12.9537 7.5293 13.5005 7.38086C14.0474 7.22852 14.6978 7.15234 15.4517 7.15234ZM15.4517 8.01953C14.6431 8.02734 14.0201 8.12109 13.5826 8.30078C13.149 8.48047 12.9322 8.73828 12.9322 9.07422C12.9322 9.40625 13.149 9.66016 13.5826 9.83594C14.0201 10.0078 14.6431 10.0938 15.4517 10.0938C16.2486 10.0938 16.8658 10.0078 17.3033 9.83594C17.7408 9.66016 17.9595 9.40625 17.9595 9.07422C17.9595 8.73828 17.7408 8.48047 17.3033 8.30078C16.8697 8.12109 16.2525 8.02734 15.4517 8.01953ZM19.3892 1.92578H16.1959C16.2388 2.26172 16.4185 2.57617 16.7349 2.86914C17.0552 3.16211 17.4771 3.41016 18.0005 3.61328C18.5279 3.8125 19.1119 3.94531 19.7525 4.01172L19.3541 4.89062C18.7486 4.82031 18.1841 4.69141 17.6607 4.50391C17.1412 4.3125 16.69 4.07227 16.3072 3.7832C15.9283 3.49414 15.6451 3.16797 15.4576 2.80469C15.2662 3.16797 14.9791 3.49414 14.5963 3.7832C14.2173 4.07227 13.7681 4.3125 13.2486 4.50391C12.7291 4.69141 12.1666 4.82031 11.5611 4.89062L11.1744 4.01172C11.8033 3.94531 12.3795 3.8125 12.9029 3.61328C13.4263 3.41406 13.8463 3.16797 14.1627 2.875C14.483 2.57812 14.6646 2.26172 14.7076 1.92578H11.5494V1.01172H19.3892V1.92578ZM29.5555 8.26562H28.4422V4.30469H26.1453V6.51953H21.3055V1.19922H22.4188V2.98047H25.0438V1.19922H26.1453V3.40234H28.4422V0.507812H29.5555V8.26562ZM29.7898 10.7734H22.7V7.50391H23.825V9.87109H29.7898V10.7734ZM25.0438 5.61719V3.83594H22.4188V5.61719H25.0438ZM40.0264 2.875H31.3897V1.97266H35.1631V0.648438H36.2647V1.97266H40.0264V2.875ZM40.542 9.8125H30.9327V8.91016H35.1631V7.52148C34.5498 7.48242 34.0225 7.37891 33.5811 7.21094C33.1397 7.03906 32.7998 6.81055 32.5616 6.52539C32.3272 6.23633 32.21 5.89844 32.21 5.51172C32.21 5.09375 32.3506 4.73438 32.6319 4.43359C32.9131 4.13281 33.3174 3.9043 33.8448 3.74805C34.3721 3.58789 34.9952 3.50781 35.7139 3.50781C36.4288 3.50781 37.0479 3.58789 37.5713 3.74805C38.0948 3.9043 38.4971 4.13281 38.7784 4.43359C39.0635 4.73438 39.2061 5.09375 39.2061 5.51172C39.2061 5.89453 39.087 6.23047 38.8487 6.51953C38.6143 6.80859 38.2764 7.03906 37.835 7.21094C37.3936 7.37891 36.8702 7.48242 36.2647 7.52148V8.91016H40.542V9.8125ZM35.7139 4.38672C34.96 4.38672 34.376 4.48438 33.962 4.67969C33.5479 4.875 33.3428 5.15234 33.3467 5.51172C33.3428 5.87109 33.5459 6.14844 33.9561 6.34375C34.3702 6.53906 34.9561 6.64062 35.7139 6.64844C36.46 6.64062 37.0381 6.53906 37.4483 6.34375C37.8623 6.14844 38.0694 5.87109 38.0694 5.51172C38.0694 5.15234 37.8623 4.875 37.4483 4.67969C37.0342 4.48438 36.4561 4.38672 35.7139 4.38672ZM52.8237 10.9961H51.7573V5.60547H50.5034V10.4805H49.4487V0.695312H50.5034V4.66797H51.7573V0.496094H52.8237V10.9961ZM46.9409 3.27344C46.9409 3.91406 47.023 4.51953 47.187 5.08984C47.3511 5.66016 47.5991 6.16797 47.9312 6.61328C48.2671 7.05469 48.6831 7.40234 49.1792 7.65625L48.523 8.51172C48.0191 8.23828 47.5913 7.86719 47.2398 7.39844C46.8882 6.92969 46.6167 6.38477 46.4253 5.76367C46.2417 6.4668 45.9722 7.08398 45.6167 7.61523C45.2652 8.14648 44.8277 8.56641 44.3042 8.875L43.6128 8.03125C44.3589 7.60938 44.9195 6.98047 45.2945 6.14453C45.6734 5.30859 45.8628 4.35156 45.8628 3.27344V2.59375H43.8941V1.69141H48.7691V2.59375H46.9409V3.27344ZM62.6384 8.19531H61.5252V4.24609H59.5213V3.34375H61.5252V0.507812H62.6384V8.19531ZM62.9197 10.7734H55.8181V7.50391H56.9314V9.87109H62.9197V10.7734ZM57.6463 2.62891C57.6463 3.06641 57.7478 3.49414 57.9509 3.91211C58.1541 4.33008 58.447 4.70312 58.8298 5.03125C59.2127 5.35938 59.6619 5.60938 60.1775 5.78125L59.6033 6.67188C59.0252 6.46875 58.5213 6.16797 58.0916 5.76953C57.6619 5.36719 57.3298 4.90234 57.0955 4.375C56.865 4.96094 56.5232 5.47461 56.0701 5.91602C55.617 6.35742 55.0838 6.6875 54.4705 6.90625L53.8963 6.00391C54.4236 5.82422 54.8845 5.5625 55.2791 5.21875C55.6736 4.87109 55.9763 4.47266 56.1873 4.02344C56.4021 3.57422 56.5095 3.10938 56.5095 2.62891V2.21875H54.2361V1.30469H59.8963V2.21875H57.6463V2.62891ZM69.3477 5.64062H73.5898V6.54297H64.0156V5.64062H68.2461V4.17578H69.3477V5.64062ZM69.3594 1.10547C69.3594 1.54297 69.5234 1.95703 69.8516 2.34766C70.1797 2.73828 70.623 3.06836 71.1816 3.33789C71.7402 3.60742 72.3555 3.78516 73.0273 3.87109L72.5938 4.75C71.7461 4.61719 70.9805 4.35352 70.2969 3.95898C69.6172 3.56445 69.1152 3.08398 68.791 2.51758C68.4629 3.08789 67.957 3.57031 67.2734 3.96484C66.5938 4.35547 65.8281 4.61719 64.9766 4.75L64.5664 3.87109C65.2305 3.78516 65.8418 3.60742 66.4004 3.33789C66.9629 3.06836 67.4082 2.73828 67.7363 2.34766C68.0645 1.95312 68.2305 1.53906 68.2344 1.10547V0.660156H69.3594V1.10547ZM68.7969 7.31641C69.5547 7.31641 70.2031 7.38867 70.7422 7.5332C71.2852 7.67383 71.6992 7.88281 71.9844 8.16016C72.2734 8.43359 72.418 8.76562 72.418 9.15625C72.418 9.54297 72.2734 9.87305 71.9844 10.1465C71.6992 10.4199 71.2852 10.627 70.7422 10.7676C70.1992 10.9082 69.5508 10.9766 68.7969 10.9727C68.0352 10.9766 67.3809 10.9082 66.834 10.7676C66.291 10.627 65.875 10.4199 65.5859 10.1465C65.2969 9.87305 65.1523 9.54297 65.1523 9.15625C65.1523 8.76562 65.2969 8.43359 65.5859 8.16016C65.875 7.88281 66.291 7.67383 66.834 7.5332C67.3809 7.38867 68.0352 7.31641 68.7969 7.31641ZM68.7969 8.17188C67.9844 8.17188 67.3613 8.25586 66.9277 8.42383C66.4941 8.5918 66.2773 8.83594 66.2773 9.15625C66.2773 9.47266 66.4941 9.71484 66.9277 9.88281C67.3613 10.0469 67.9844 10.1289 68.7969 10.1289C69.5977 10.1289 70.2148 10.0469 70.6484 9.88281C71.0859 9.71484 71.3047 9.47266 71.3047 9.15625C71.3047 8.83594 71.0879 8.5918 70.6543 8.42383C70.2207 8.25586 69.6016 8.17188 68.7969 8.17188Z" fill="#626262"/>
<path d="M0.152657 11.8809H74V12.7891H0.152657V11.8809Z" fill="#626262"/>
</svg>
