<svg width="36" height="46" viewBox="0 0 36 46" fill="none" xmlns="http://www.w3.org/2000/svg">
<g filter="url(#filter0_d_3600_45798)">
<path d="M33.8584 17.6729C33.8584 24.8073 24.1944 37.5089 19.9571 42.7495C18.9411 43.9984 17.0579 43.9984 16.0419 42.7495C11.8046 37.5089 2.14062 24.8073 2.14062 17.6729C2.14062 9.02014 9.24408 2 17.9995 2C26.7549 2 33.8584 9.02014 33.8584 17.6729Z" fill="#AFAFAF"/>
</g>
<path d="M24 11.2836C24 11.0905 23.956 10.8999 23.871 10.726C23.7861 10.5521 23.6626 10.3994 23.5095 10.2792C23.3565 10.159 23.178 10.0744 22.9873 10.0317C22.7965 9.98906 22.5985 9.98943 22.4079 10.0328L12.3433 12.3256C11.9614 12.4126 11.6207 12.6249 11.3767 12.9277C11.1327 13.2305 10.9999 13.606 11 13.9929V26.1445C11 26.3714 11.0913 26.589 11.2538 26.7494C11.4164 26.9099 11.6368 27 11.8667 27C12.0965 27 12.317 26.9099 12.4795 26.7494C12.642 26.589 12.7333 26.3714 12.7333 26.1445V22.548L22.6567 20.2869C23.0386 20.1998 23.3793 19.9876 23.6233 19.6847C23.8673 19.3819 24.0001 19.0064 24 18.6195V11.2836Z" fill="white"/>
<defs>
<filter id="filter0_d_3600_45798" x="0.140625" y="0" width="35.7168" height="45.6863" filterUnits="userSpaceOnUse" color-interpolation-filters="sRGB">
<feFlood flood-opacity="0" result="BackgroundImageFix"/>
<feColorMatrix in="SourceAlpha" type="matrix" values="0 0 0 0 0 0 0 0 0 0 0 0 0 0 0 0 0 0 127 0" result="hardAlpha"/>
<feOffset/>
<feGaussianBlur stdDeviation="1"/>
<feComposite in2="hardAlpha" operator="out"/>
<feColorMatrix type="matrix" values="0 0 0 0 0 0 0 0 0 0 0 0 0 0 0 0 0 0 0.25 0"/>
<feBlend mode="normal" in2="BackgroundImageFix" result="effect1_dropShadow_3600_45798"/>
<feBlend mode="normal" in="SourceGraphic" in2="effect1_dropShadow_3600_45798" result="shape"/>
</filter>
</defs>
</svg>
