<svg width="12" height="10" viewBox="0 0 12 10" fill="none" xmlns="http://www.w3.org/2000/svg">
<path id="arrow.right" d="M12 5.00322C12 4.80335 11.9176 4.60993 11.7718 4.46808L7.60697 0.232108C7.44216 0.070922 7.271 0 7.0935 0C6.6878 0 6.3962 0.290135 6.3962 0.68343C6.3962 0.889749 6.47861 1.06383 6.60539 1.19278L8.0317 2.6628L9.87005 4.37137L8.39937 4.28111H0.716323C0.291601 4.28111 0 4.57769 0 5.00322C0 5.42231 0.291601 5.71889 0.716323 5.71889H8.39937L9.87005 5.62863L8.0317 7.3372L6.60539 8.80722C6.47861 8.93617 6.3962 9.11025 6.3962 9.31657C6.3962 9.70986 6.6878 10 7.0935 10C7.271 10 7.44216 9.92908 7.5943 9.78079L11.7718 5.53191C11.9176 5.39007 12 5.19665 12 5.00322Z" fill="#3E3E3E"/>
</svg>
