<svg width="24" height="24" viewBox="0 0 24 24" fill="none" xmlns="http://www.w3.org/2000/svg">
<g id="clock.fill">
<path id="clock.fill_2" d="M11.9925 19.4933C16.264 19.4933 19.7896 15.9676 19.7896 11.7037C19.7896 7.43973 16.2564 3.91406 11.9849 3.91406C7.72099 3.91406 4.20285 7.43973 4.20285 11.7037C4.20285 15.9676 7.72852 19.4933 11.9925 19.4933ZM8.1956 12.6529C7.85659 12.6529 7.59292 12.3892 7.59292 12.0502C7.59292 11.7112 7.85659 11.4475 8.1956 11.4475H11.3898V7.12333C11.3898 6.78432 11.6535 6.52065 11.9849 6.52065C12.3315 6.52065 12.5951 6.78432 12.5951 7.12333V12.0502C12.5951 12.3892 12.3315 12.6529 11.9849 12.6529H8.1956Z" fill="#3E3E3E"/>
</g>
</svg>
