<svg width="343" height="124" viewBox="0 0 343 124" fill="none" xmlns="http://www.w3.org/2000/svg">
<rect width="343" height="124" fill="#1492EF"/>
<path d="M31.7031 50.4688V51.7129H20.4102V50.4688H25.2773V47.7754H21.6543V41.8145H30.4043V47.7754H26.7812V50.4688H31.7031ZM23.1445 43.0312V46.5859H28.9004V43.0312H23.1445ZM42.0155 45.3281V46.5312H33.5527V41.541H41.8788V42.7578H35.1112V45.3281H42.0155ZM43.3691 47.8984V49.1289H38.4472V53.1895H36.9433V49.1289H32.0761V47.8984H43.3691ZM47.7752 41.7188C49.7303 41.7051 51.1659 42.9492 51.1795 44.6992C51.1659 46.4629 49.7303 47.6934 47.7752 47.6934C45.8338 47.6934 44.3846 46.4629 44.3846 44.6992C44.3846 42.9492 45.8338 41.7051 47.7752 41.7188ZM47.7752 43.0312C46.6952 43.0312 45.8885 43.6738 45.8885 44.6992C45.8885 45.7383 46.6952 46.3672 47.7752 46.3672C48.869 46.3672 49.6893 45.7383 49.6893 44.6992C49.6893 43.6738 48.869 43.0312 47.7752 43.0312ZM54.0643 40.8574V53.2305H52.5467V40.8574H54.0643ZM43.8241 49.4023C46.0526 49.4023 49.1424 49.375 51.8084 48.9922L51.9315 50.0996C49.1561 50.6328 46.1893 50.6465 44.0155 50.6465L43.8241 49.4023ZM60.7673 41.7188V42.9355H57.3767V44.1387H60.6443V45.3008H57.3767V46.5996C58.8875 46.5859 59.9334 46.5244 61.1365 46.2988L61.3005 47.5293C59.8513 47.8027 58.6482 47.8438 56.7341 47.8438H55.9138V41.7188H60.7673ZM66.0173 40.8711V48.3906H64.5681V45.1777H63.283V48.2949H61.8611V41.1035H63.283V43.9609H64.5681V40.8711H66.0173ZM66.0173 48.9375V53.2168H64.4998V50.168H57.5545V48.9375H66.0173ZM71.8044 43.8242C71.7907 46.0938 72.9802 48.3633 74.9899 49.2246L74.0876 50.4414C72.6657 49.7852 71.6198 48.4727 71.0524 46.8594C70.485 48.6025 69.4255 50.0244 67.9216 50.7285L66.9919 49.457C69.0563 48.5684 70.2595 46.2031 70.2595 43.8242V41.8555H71.8044V43.8242ZM77.4098 40.8574V53.2305H75.8786V40.8574H77.4098ZM91.9917 40.8574V53.2305H90.4605V40.8574H91.9917ZM85.3335 41.7598C87.1929 41.7598 88.5464 43.4551 88.5601 46.1211C88.5464 48.8145 87.1929 50.4961 85.3335 50.4961C83.4605 50.4961 82.107 48.8145 82.107 46.1211C82.107 43.4551 83.4605 41.7598 85.3335 41.7598ZM85.3335 43.127C84.2808 43.127 83.5698 44.2344 83.5698 46.1211C83.5698 48.0215 84.2808 49.1289 85.3335 49.1289C86.3726 49.1289 87.0835 48.0215 87.0835 46.1211C87.0835 44.2344 86.3726 43.127 85.3335 43.127ZM104.656 46.8047V48.0215H93.3901V46.8047H96.0151V45.2324C95.0854 44.8428 94.5522 44.2207 94.5522 43.4141C94.5522 41.9375 96.2885 41.0625 99.0092 41.0625C101.73 41.0625 103.453 41.9375 103.466 43.4141C103.459 44.2275 102.926 44.8496 101.99 45.2324V46.8047H104.656ZM99.0092 48.7734C101.675 48.7598 103.275 49.5527 103.289 50.9746C103.275 52.4102 101.675 53.1895 99.0092 53.1895C96.3159 53.1895 94.7026 52.4102 94.7026 50.9746C94.7026 49.5527 96.3159 48.7598 99.0092 48.7734ZM99.0092 49.9219C97.2045 49.9219 96.2338 50.2773 96.2475 50.9746C96.2338 51.6719 97.2045 52.041 99.0092 52.041C100.773 52.041 101.757 51.6719 101.771 50.9746C101.757 50.2773 100.773 49.9219 99.0092 49.9219ZM99.0092 42.2383C97.1772 42.2383 96.1245 42.6484 96.1381 43.4141C96.1245 44.166 97.1772 44.5625 99.0092 44.5625C100.828 44.5625 101.894 44.166 101.894 43.4141C101.894 42.6484 100.828 42.2383 99.0092 42.2383ZM97.5463 46.8047H100.472V45.6289C100.028 45.6904 99.5356 45.7246 99.0092 45.7246C98.4828 45.7246 97.9907 45.6904 97.5463 45.6289V46.8047ZM114.749 40.8574V45.7793H116.65V47.0371H114.749V53.2168H113.245V40.8574H114.749ZM112.288 42.7578V43.9746H105.001V42.7578H107.927V41.0352H109.445V42.7578H112.288ZM108.693 44.7812C110.47 44.7812 111.796 45.9844 111.796 47.6934C111.796 49.4023 110.47 50.5918 108.693 50.5918C106.888 50.5918 105.562 49.4023 105.576 47.6934C105.562 45.9844 106.888 44.7812 108.693 44.7812ZM108.693 46.0254C107.722 46.0254 107.025 46.6816 107.025 47.6934C107.025 48.7051 107.722 49.3477 108.693 49.334C109.636 49.3477 110.333 48.7051 110.347 47.6934C110.333 46.6816 109.636 46.0254 108.693 46.0254ZM126.839 41.9922V43.1816C126.825 44.7129 126.825 46.4355 126.347 49.0195L124.816 48.8555C125.294 46.4492 125.294 44.6924 125.308 43.209H117.925V41.9922H126.839ZM128.015 50.373V51.6172H116.749V50.373H120.906V46.0801H122.409V50.373H128.015ZM130.835 51.0293L129.687 54.8574H128.388L129.099 51.0293H130.835Z" fill="#D0EBFF"/>
<path d="M28.1836 64.2148V66.207H23.5352V67.6719H28.0078V69.5664H23.5352V71.1289C25.5078 71.1191 26.9727 71.041 28.6133 70.7578L28.8672 72.75C26.7773 73.1211 25.0391 73.1797 22.3633 73.1797H21.1523V64.2148H28.1836ZM35.8008 63.043V73.8828H33.4375V69.3711H31.8945V73.7461H29.5703V63.3555H31.8945V67.3789H33.4375V63.043H35.8008ZM35.8008 74.625V80.7969H33.3203V76.6172H23.5156V74.625H35.8008ZM43.9266 67.0469C43.9266 70.3086 45.4109 73.5898 48.4188 74.8594L46.9539 76.8516C44.9227 75.9336 43.5164 74.166 42.7156 71.9688C41.9051 74.3613 40.45 76.2949 38.282 77.2812L36.7781 75.2109C39.8836 73.9023 41.3875 70.5039 41.407 67.0469V64.3906H43.9266V67.0469ZM51.8953 63.0234V80.8359H49.3758V63.0234H51.8953ZM68.3805 63.0234V80.8359H65.8609V63.0234H68.3805ZM56.8766 64.4297V68.7656H60.7047V64.4297H63.1656V76.6758H54.3766V64.4297H56.8766ZM56.8766 74.6641H60.7047V70.6992H56.8766V74.6641ZM80.4719 64.8594V79H77.5227V67.6523H77.4445L74.2023 69.6836V67.0859L77.6984 64.8594H80.4719ZM88.4414 79.1953C84.9062 79.1953 82.7578 76.5586 82.7578 71.9297C82.7578 67.3008 84.9062 64.6641 88.4414 64.6641C91.9766 64.6641 94.125 67.3203 94.125 71.9297C94.125 76.5781 91.9766 79.1953 88.4414 79.1953ZM88.4414 76.7734C90.082 76.7734 91.1367 75.1914 91.1172 71.9297C91.1172 68.707 90.082 67.0664 88.4414 67.0664C86.8008 67.0664 85.7656 68.707 85.7656 71.9297C85.7461 75.1914 86.8008 76.7734 88.4414 76.7734ZM100.845 79.1953C97.3094 79.1953 95.1609 76.5586 95.1609 71.9297C95.1609 67.3008 97.3094 64.6641 100.845 64.6641C104.38 64.6641 106.528 67.3203 106.528 71.9297C106.528 76.5781 104.38 79.1953 100.845 79.1953ZM100.845 76.7734C102.485 76.7734 103.54 75.1914 103.52 71.9297C103.52 68.707 102.485 67.0664 100.845 67.0664C99.2039 67.0664 98.1687 68.707 98.1687 71.9297C98.1492 75.1914 99.2039 76.7734 100.845 76.7734ZM111.47 71.9297C109.361 71.9297 108.209 70.3867 108.209 68.1602C108.209 65.9141 109.4 64.3711 111.47 64.3711C113.599 64.3711 114.713 65.9141 114.732 68.1602C114.713 70.4062 113.56 71.9297 111.47 71.9297ZM111.47 70.1914C112.31 70.1914 112.72 69.3711 112.74 68.1602C112.72 66.9492 112.349 66.1094 111.47 66.1094C110.63 66.1094 110.201 66.9688 110.201 68.1602C110.201 69.3711 110.65 70.1914 111.47 70.1914ZM121.002 79.4688C118.912 79.4688 117.759 77.9258 117.759 75.6992C117.759 73.4531 118.951 71.9102 121.002 71.9102C123.13 71.9102 124.263 73.4531 124.283 75.6992C124.263 77.9453 123.111 79.4688 121.002 79.4688ZM121.002 77.7305C121.861 77.7305 122.271 76.9297 122.291 75.6992C122.271 74.4883 121.9 73.6484 121.002 73.668C120.181 73.668 119.752 74.5078 119.752 75.6992C119.752 76.9297 120.201 77.7305 121.002 77.7305ZM110.24 79L119.966 64.8594H122.154L112.427 79H110.24ZM143.601 63.0234V68.8633H145.866V70.9141H143.601V76.8906H141.101V63.0234H143.601ZM144.206 78.4922V80.4844H131.687V75.9727H134.187V78.4922H144.206ZM129.187 73.2383C130.466 73.2383 131.95 73.2285 133.503 73.1797V72.1445C131.57 71.8809 130.359 70.9141 130.378 69.5273C130.359 67.7695 132.097 66.7344 134.734 66.7539C137.351 66.7344 139.07 67.7695 139.089 69.5273C139.07 70.9043 137.888 71.8711 135.984 72.1445V73.0625C137.448 72.9746 138.913 72.8379 140.28 72.6328L140.456 74.3516C136.706 75.0742 132.507 75.1133 129.441 75.1523L129.187 73.2383ZM139.831 64.4688V66.2461H129.655V64.4688H133.503V62.9648H135.984V64.4688H139.831ZM134.734 68.4141C133.464 68.4141 132.741 68.7656 132.761 69.5273C132.741 70.1914 133.464 70.5625 134.734 70.5625C135.984 70.5625 136.687 70.1914 136.706 69.5273C136.687 68.7656 135.984 68.4141 134.734 68.4141ZM150.262 73.1406V75.0352H157.664V73.1406H160.125V80.6016H147.82V73.1406H150.262ZM150.262 78.5898H157.664V76.9297H150.262V78.5898ZM160.203 63.7461V65.1719C160.203 66.5195 160.203 67.9648 159.793 69.9766H162.137V71.9688H145.867V69.9766H157.312C157.664 68.2578 157.713 66.9199 157.723 65.7383H147.859V63.7461H160.203ZM176.454 63.0234V67.0664H178.856V69.1172H176.454V73.3945H173.954V63.0234H176.454ZM165.36 64.0586V66.3242H168.993V64.0586H171.493V72.5156H162.88V64.0586H165.36ZM165.36 70.5625H168.993V68.2578H165.36V70.5625ZM176.552 74.1953V76.168H167.313V78.6094H176.884V80.5625H164.833V74.1953H176.552ZM185.4 67.8672C185.38 70.582 186.826 73.707 189.755 75.0547L188.369 77.0078C186.386 76.0996 184.97 74.2832 184.189 72.1445C183.388 74.498 181.933 76.4902 179.873 77.457L178.427 75.4844C181.396 74.0977 182.88 70.7969 182.9 67.8672V66.7734H179.13V64.7422H188.974V66.7734H185.4V67.8672ZM192.861 63.0234V69.8008H195.478V71.8906H192.861V80.7969H190.361V63.0234H192.861ZM199.366 64.8594L199.112 74.7617H196.612L196.358 64.8594H199.366ZM197.881 79.1758C196.963 79.1758 196.221 78.4336 196.241 77.5352C196.221 76.6367 196.963 75.9141 197.881 75.9141C198.741 75.9141 199.502 76.6367 199.502 77.5352C199.502 78.4336 198.741 79.1758 197.881 79.1758Z" fill="white"/>
<ellipse cx="204.46" cy="45.2778" rx="2.39738" ry="4.90535" transform="rotate(115.529 204.46 45.2778)" fill="#3986D2"/>
<circle cx="315" cy="15" r="2" fill="#E2F5FF" fill-opacity="0.46"/>
<g filter="url(#filter0_f_6424_37152)">
<ellipse cx="272.5" cy="95" rx="43.5" ry="5" fill="url(#paint0_linear_6424_37152)" fill-opacity="0.2"/>
</g>
<g filter="url(#filter1_d_6424_37152)">
<path fill-rule="evenodd" clip-rule="evenodd" d="M215.354 57.991C214.054 54.0081 216.229 49.7254 220.212 48.4253L303.147 21.3543C307.13 20.0542 311.412 22.2291 312.713 26.212L315.653 35.2199C315.811 35.7041 315.516 36.2163 315.032 36.3744C309.556 38.162 306.641 44.2842 308.523 50.0488C310.405 55.8134 316.37 59.0374 321.846 57.2498C322.33 57.0917 322.87 57.3316 323.028 57.8158L325.969 66.8236C327.269 70.8066 325.094 75.0893 321.111 76.3894L238.176 103.46C234.193 104.761 229.91 102.586 228.61 98.6027L225.911 90.332C225.607 89.4022 226.074 88.4095 226.89 87.8704C230.768 85.309 232.58 80.205 230.997 75.3544C229.413 70.5037 224.939 67.4519 220.297 67.6712C219.32 67.7174 218.357 67.1915 218.054 66.2617L215.354 57.991Z" fill="url(#paint1_linear_6424_37152)"/>
<path d="M256.245 51.4569C255.939 50.8787 255.332 50.6874 254.712 50.8897C253.874 51.1633 253.498 51.995 253.875 53.15C254.257 54.3191 255.053 54.7528 255.884 54.4815C256.49 54.2838 256.873 53.7849 256.797 53.1471L257.719 52.846C257.898 53.8709 257.35 54.9147 256.139 55.3101C254.794 55.7492 253.488 55.0921 252.953 53.4511C252.415 51.8031 253.098 50.5048 254.429 50.0703C255.556 49.7025 256.643 50.0724 257.168 51.1557L256.245 51.4569ZM262.489 50.3384C263.027 51.9864 262.344 53.2848 261.006 53.7215C259.668 54.1583 258.348 53.5058 257.813 51.8649C257.275 50.2169 257.957 48.9185 259.296 48.4818C260.634 48.045 261.951 48.6904 262.489 50.3384ZM261.566 50.6396C261.187 49.4775 260.396 49.0345 259.565 49.3057C258.733 49.577 258.356 50.4017 258.735 51.5637C259.114 52.7258 259.906 53.1688 260.737 52.8975C261.568 52.6263 261.946 51.8016 261.566 50.6396ZM265.404 46.5659L266.326 46.2648L267.414 49.596C267.77 50.6876 267.185 51.7124 265.945 52.117C264.699 52.5239 263.629 52.0393 263.273 50.9477L262.185 47.6165L263.101 47.3176L264.163 50.5713C264.372 51.2122 264.974 51.5299 265.679 51.3C266.383 51.0702 266.675 50.4605 266.466 49.8196L265.404 46.5659ZM268.646 51.1498L266.982 46.0509L268.897 45.4256C270.066 45.044 270.925 45.5507 271.245 46.5296C271.564 47.5086 271.16 48.4197 269.984 48.8036L268.998 49.1255L269.561 50.8509L268.646 51.1498ZM268.752 48.3719L269.611 48.0915C270.302 47.8662 270.485 47.3777 270.308 46.8354C270.129 46.286 269.697 46.0139 269.007 46.2392L268.148 46.5197L268.752 48.3719ZM276.526 45.7566C277.064 47.4046 276.381 48.7029 275.043 49.1397C273.705 49.5765 272.385 48.924 271.85 47.283C271.312 45.635 271.994 44.3367 273.333 43.8999C274.671 43.4631 275.988 44.1086 276.526 45.7566ZM275.603 46.0577C275.224 44.8957 274.433 44.4526 273.601 44.7239C272.77 44.9952 272.393 45.8198 272.772 46.9819C273.151 48.1439 273.943 48.587 274.774 48.3157C275.605 48.0444 275.983 47.2198 275.603 46.0577ZM280.413 41.6668L282.077 46.7657L281.26 47.0324L277.706 44.3348L277.664 44.3486L278.802 47.8347L277.887 48.1335L276.222 43.0346L277.053 42.7634L280.593 45.4656L280.642 45.4495L279.504 41.9634L280.413 41.6668Z" fill="#9F9F9F"/>
<path d="M249.398 65.7522L254.391 81.0489L251.201 82.0903L247.194 69.8148L247.109 69.8424L244.319 73.1846L243.402 70.3745L246.398 66.7315L249.398 65.7522ZM263.081 78.4462C259.257 79.6944 256.002 77.6007 254.367 72.5934C252.733 67.586 254.126 63.9751 257.95 62.7268C261.774 61.4786 265.036 63.5934 266.664 68.5796C268.305 73.6081 266.905 77.1979 263.081 78.4462ZM262.226 75.8263C264.001 75.247 264.583 73.1632 263.41 69.6417C262.272 66.1555 260.573 64.7463 258.798 65.3256C257.023 65.9049 256.483 68.0452 257.621 71.5313C258.751 75.0666 260.451 76.4056 262.226 75.8263ZM276.498 74.0666C272.674 75.3149 269.419 73.2212 267.784 68.2138C266.15 63.2065 267.543 59.5955 271.367 58.3473C275.191 57.099 278.453 59.2138 280.081 64.2001C281.722 69.2286 280.322 72.8184 276.498 74.0666ZM275.643 71.4467C277.418 70.8674 278 68.7836 276.827 65.2621C275.689 61.776 273.99 60.3667 272.215 60.946C270.441 61.5253 269.9 63.6656 271.038 67.1518C272.169 70.6871 273.868 72.026 275.643 71.4467ZM285.427 62.455C283.145 63.1998 281.354 61.9376 280.568 59.529C279.775 57.0992 280.519 55.0094 282.758 54.2784C285.061 53.5267 286.81 54.8027 287.625 57.2255C288.397 59.6622 287.688 61.7171 285.427 62.455ZM284.813 60.5746C285.722 60.278 285.876 59.2458 285.47 57.929C285.021 56.6259 284.323 55.8484 283.372 56.1588C282.464 56.4553 282.302 57.5367 282.723 58.8255C283.15 60.1355 283.926 60.8642 284.813 60.5746ZM298.4 67.245C296.139 67.9829 294.348 66.7206 293.562 64.312C292.768 61.8823 293.512 59.7925 295.731 59.0684C298.034 58.3166 299.804 59.5858 300.618 62.0086C301.39 64.4452 300.682 66.5001 298.4 67.245ZM297.786 65.3645C298.716 65.0611 298.877 64.05 298.463 62.7121C298.015 61.409 297.317 60.6315 296.352 60.9699C295.464 61.2595 295.296 62.3198 295.717 63.6086C296.151 64.9397 296.92 65.6473 297.786 65.3645ZM286.593 70.5378L292.121 51.8066L294.488 51.0342L288.959 69.7654L286.593 70.5378Z" fill="#06ACFF"/>
</g>
<ellipse cx="325.969" cy="86.7122" rx="3.51704" ry="7.19634" transform="rotate(41.7124 325.969 86.7122)" fill="#68C0FF" fill-opacity="0.4"/>
<defs>
<filter id="filter0_f_6424_37152" x="224.4" y="85.4" width="96.2" height="19.2" filterUnits="userSpaceOnUse" color-interpolation-filters="sRGB">
<feFlood flood-opacity="0" result="BackgroundImageFix"/>
<feBlend mode="normal" in="SourceGraphic" in2="BackgroundImageFix" result="shape"/>
<feGaussianBlur stdDeviation="2.3" result="effect1_foregroundBlur_6424_37152"/>
</filter>
<filter id="filter1_d_6424_37152" x="211.977" y="19.9775" width="117.368" height="88.8594" filterUnits="userSpaceOnUse" color-interpolation-filters="sRGB">
<feFlood flood-opacity="0" result="BackgroundImageFix"/>
<feColorMatrix in="SourceAlpha" type="matrix" values="0 0 0 0 0 0 0 0 0 0 0 0 0 0 0 0 0 0 127 0" result="hardAlpha"/>
<feOffset dy="2"/>
<feGaussianBlur stdDeviation="1.5"/>
<feComposite in2="hardAlpha" operator="out"/>
<feColorMatrix type="matrix" values="0 0 0 0 0.40402 0 0 0 0 0.40402 0 0 0 0 0.40402 0 0 0 0.25 0"/>
<feBlend mode="normal" in2="BackgroundImageFix" result="effect1_dropShadow_6424_37152"/>
<feBlend mode="normal" in="SourceGraphic" in2="effect1_dropShadow_6424_37152" result="shape"/>
</filter>
<linearGradient id="paint0_linear_6424_37152" x1="229" y1="95" x2="316" y2="95" gradientUnits="userSpaceOnUse">
<stop stop-color="#272727"/>
<stop offset="1" stop-color="#8D8D8D"/>
</linearGradient>
<linearGradient id="paint1_linear_6424_37152" x1="261.679" y1="34.8898" x2="279.643" y2="89.9249" gradientUnits="userSpaceOnUse">
<stop stop-color="#E2EFFF"/>
<stop offset="1" stop-color="#C8EBFF"/>
</linearGradient>
</defs>
</svg>
