<svg width="139" height="15" viewBox="0 0 139 15" fill="none" xmlns="http://www.w3.org/2000/svg">
<path d="M25.6191 12.9355L20.4824 14.3711L18.4414 7.82812H18.3438C18.2135 8.04297 17.735 8.7819 16.9082 10.0449C16.0814 11.3079 15.5345 12.2031 15.2676 12.7305H11.127C10.4499 11.6172 9.84766 10.6829 9.32031 9.92773C8.79948 9.17253 8.38932 8.5638 8.08984 8.10156H7.95312C7.82943 8.47266 7.50065 9.50456 6.9668 11.1973C6.43945 12.8835 6.0944 13.9414 5.93164 14.3711L0.84375 12.9355C1.25391 11.5228 1.89518 9.29297 2.76758 6.24609C3.64648 3.19922 4.11849 1.50977 4.18359 1.17773L9.56445 0.757812C9.67513 0.998698 10.0755 1.73438 10.7656 2.96484C11.4557 4.1888 12.2793 5.56576 13.2363 7.0957H13.3242C13.9557 6.04753 14.7207 4.77474 15.6191 3.27734C16.5241 1.77995 17.0352 0.933594 17.1523 0.738281L22.7383 1.1875C22.7773 1.3763 23.1615 2.9974 23.8906 6.05078C24.6263 9.09766 25.2025 11.3926 25.6191 12.9355ZM45.1094 7.52539C45.1094 8.50195 44.8652 9.42969 44.377 10.3086C43.8887 11.181 43.1107 11.985 42.043 12.7207C41.2812 13.248 40.3307 13.6582 39.1914 13.9512C38.0586 14.2441 36.7988 14.3906 35.4121 14.3906C34.1165 14.3906 32.9154 14.2572 31.8086 13.9902C30.7018 13.7233 29.7155 13.3034 28.8496 12.7305C27.7949 12.0013 27.0039 11.2005 26.4766 10.3281C25.9557 9.45573 25.6953 8.52474 25.6953 7.53516C25.6953 6.51302 25.9362 5.56901 26.418 4.70312C26.9062 3.83724 27.5996 3.08203 28.498 2.4375C29.3965 1.79297 30.3991 1.31771 31.5059 1.01172C32.6191 0.705729 33.9017 0.552734 35.3535 0.552734C36.7467 0.552734 38.013 0.702474 39.1523 1.00195C40.2917 1.29492 41.3073 1.74089 42.1992 2.33984C43.2279 3.02995 43.9701 3.79818 44.4258 4.64453C44.8815 5.49089 45.1094 6.45117 45.1094 7.52539ZM39.4746 7.4082C39.4746 6.88737 39.3346 6.45443 39.0547 6.10938C38.7812 5.76432 38.4004 5.48112 37.9121 5.25977C37.5671 5.10352 37.1764 4.99284 36.7402 4.92773C36.304 4.85612 35.8451 4.82031 35.3633 4.82031C34.8164 4.82031 34.3346 4.86914 33.918 4.9668C33.5078 5.05794 33.1335 5.18815 32.7949 5.35742C32.3066 5.60482 31.9388 5.91081 31.6914 6.27539C31.4505 6.63346 31.3301 7.03385 31.3301 7.47656C31.3301 7.86719 31.4408 8.25456 31.6621 8.63867C31.8835 9.02279 32.2904 9.35482 32.8828 9.63477C33.2734 9.81706 33.6771 9.94401 34.0938 10.0156C34.5104 10.0807 34.9564 10.1133 35.4316 10.1133C35.9264 10.1133 36.3561 10.084 36.7207 10.0254C37.0853 9.9668 37.4987 9.83984 37.9609 9.64453C38.5078 9.41667 38.8952 9.07812 39.123 8.62891C39.3574 8.17969 39.4746 7.77279 39.4746 7.4082ZM63.7012 7.54492C63.7012 8.62565 63.3659 9.61849 62.6953 10.5234C62.0247 11.4219 61.0417 12.1608 59.7461 12.7402C58.6654 13.222 57.4805 13.5605 56.1914 13.7559C54.9089 13.9512 53.3659 14.0488 51.5625 14.0488C50.9049 14.0488 49.873 14.0358 48.4668 14.0098C47.0671 13.9902 46.3249 13.9805 46.2402 13.9805C46.2402 13.9089 46.2402 13.4434 46.2402 12.584C46.2467 11.7246 46.25 9.82031 46.25 6.87109C46.25 5.32161 46.2467 4.01302 46.2402 2.94531C46.2402 1.87109 46.2402 1.19727 46.2402 0.923828C46.3314 0.923828 46.8978 0.920573 47.9395 0.914062C48.9811 0.901042 50.0163 0.894531 51.0449 0.894531C52.9264 0.894531 54.6257 1.01172 56.1426 1.24609C57.666 1.48047 58.9681 1.84505 60.0488 2.33984C61.2793 2.9388 62.194 3.68099 62.793 4.56641C63.3984 5.44531 63.7012 6.43815 63.7012 7.54492ZM58.0859 7.39844C58.0859 6.95573 57.9069 6.56185 57.5488 6.2168C57.1973 5.86523 56.7122 5.5918 56.0938 5.39648C55.5859 5.23372 55.026 5.13281 54.4141 5.09375C53.8086 5.04818 52.9883 5.02539 51.9531 5.02539C51.888 5.02539 51.8392 5.02539 51.8066 5.02539C51.7741 5.02539 51.7318 5.02539 51.6797 5.02539C51.6797 5.23372 51.6797 5.49414 51.6797 5.80664C51.6797 6.11263 51.6797 6.87435 51.6797 8.0918C51.6797 8.30013 51.6797 8.54753 51.6797 8.83398C51.6862 9.11393 51.6895 9.44596 51.6895 9.83008C51.8001 9.83008 51.8783 9.83008 51.9238 9.83008C51.9694 9.83008 52.0215 9.83008 52.0801 9.83008C52.8353 9.83659 53.4928 9.82682 54.0527 9.80078C54.6126 9.77474 55.1888 9.69987 55.7812 9.57617C56.7253 9.38086 57.3438 9.10742 57.6367 8.75586C57.9362 8.4043 58.0859 7.95182 58.0859 7.39844ZM81.9902 0.923828C81.9902 1.65299 81.987 2.26823 81.9805 2.76953C81.974 3.27083 81.9707 4.00977 81.9707 4.98633C81.9707 5.62435 81.9707 6.13867 81.9707 6.5293C81.9772 6.91341 81.9805 7.41797 81.9805 8.04297C81.9805 9.38411 81.7396 10.4421 81.2578 11.2168C80.776 11.9915 80.1576 12.584 79.4023 12.9941C78.4062 13.5671 77.4655 13.9382 76.5801 14.1074C75.6947 14.2767 74.6009 14.3613 73.2988 14.3613C71.8145 14.3613 70.5872 14.2344 69.6172 13.9805C68.6536 13.7266 67.7943 13.375 67.0391 12.9258C66.2448 12.444 65.6426 11.819 65.2324 11.0508C64.8223 10.276 64.6172 9.22786 64.6172 7.90625C64.6172 7.48307 64.6172 7.03385 64.6172 6.55859C64.6237 6.07682 64.627 5.52018 64.627 4.88867C64.627 4.31576 64.6237 3.70052 64.6172 3.04297C64.6172 2.38542 64.6172 1.67904 64.6172 0.923828H70.1348C70.1348 1.98503 70.1315 2.72396 70.125 3.14062C70.125 3.55729 70.125 4.15951 70.125 4.94727C70.125 5.48112 70.125 5.92708 70.125 6.28516C70.1315 6.64323 70.1348 7.10547 70.1348 7.67188C70.1348 8.58984 70.4115 9.2181 70.9648 9.55664C71.5182 9.88867 72.2962 10.0547 73.2988 10.0547C74.2754 10.0547 75.0566 9.86263 75.6426 9.47852C76.2285 9.0944 76.5215 8.52474 76.5215 7.76953C76.5215 7.38542 76.5247 6.97201 76.5312 6.5293C76.5378 6.08659 76.541 5.60482 76.541 5.08398C76.541 4.56315 76.5378 4.04232 76.5312 3.52148C76.5312 3.00065 76.5312 2.13477 76.5312 0.923828H81.9902ZM98.1699 5.34766C97.7793 5.34766 97.1152 5.35417 96.1777 5.36719C95.2402 5.3737 94.2246 5.37695 93.1309 5.37695C93.1309 5.9694 93.1309 6.51953 93.1309 7.02734C93.1309 7.53516 93.1309 8.10482 93.1309 8.73633C93.1309 9.8431 93.1309 10.9303 93.1309 11.998C93.1374 13.0592 93.1374 13.7266 93.1309 14H87.7012C87.7012 13.7786 87.7044 13.2057 87.7109 12.2812C87.7174 11.3503 87.7272 10.2272 87.7402 8.91211C87.7467 8.3457 87.7467 7.80859 87.7402 7.30078C87.7402 6.79297 87.7402 6.15169 87.7402 5.37695C86.9264 5.37695 85.9271 5.37695 84.7422 5.37695C83.5573 5.37695 82.8835 5.37695 82.7207 5.37695V0.923828C83.0267 0.923828 83.9772 0.927083 85.5723 0.933594C87.1738 0.933594 88.7949 0.933594 90.4355 0.933594C91.2168 0.933594 92.6003 0.933594 94.5859 0.933594C96.5781 0.927083 97.7728 0.923828 98.1699 0.923828V5.34766ZM115.248 12.457L110.15 14.459C109.955 14.0488 109.708 13.5833 109.408 13.0625C109.115 12.5352 108.891 12.1315 108.734 11.8516H102.094C101.996 12.112 101.785 12.5742 101.459 13.2383C101.14 13.9023 100.948 14.3027 100.883 14.4395L96.0977 12.3496C96.3451 11.9004 97.263 10.3086 98.8516 7.57422C100.44 4.83333 101.716 2.61979 102.68 0.933594H108.637C109.698 2.77604 111.016 5.08724 112.592 7.86719C114.167 10.6406 115.053 12.1706 115.248 12.457ZM107.66 8.69727C107.38 8.22852 107.016 7.57096 106.566 6.72461C106.117 5.87174 105.766 5.2207 105.512 4.77148H105.453C105.173 5.25977 104.776 5.95638 104.262 6.86133C103.754 7.75977 103.402 8.37174 103.207 8.69727L103.217 8.70703H107.65L107.66 8.69727ZM131.994 12.6426L127.131 14.4688C126.695 13.974 126.102 13.3392 125.354 12.5645C124.611 11.7897 123.931 11.0996 123.312 10.4941H123.244C122.548 11.1322 121.711 11.9102 120.734 12.8281C119.758 13.7396 119.156 14.306 118.928 14.5273L114.152 12.75C114.517 12.3984 115.23 11.7018 116.291 10.6602C117.359 9.61198 118.345 8.62565 119.25 7.70117V7.65234C118.54 6.91016 117.648 5.96615 116.574 4.82031C115.5 3.66797 114.764 2.86393 114.367 2.4082L119.27 0.357422C119.595 0.748047 120.139 1.36328 120.9 2.20312C121.662 3.03646 122.424 3.85026 123.186 4.64453H123.273C123.749 4.19531 124.406 3.47591 125.246 2.48633C126.086 1.49023 126.607 0.822917 126.809 0.484375L131.809 2.29102C131.477 2.66862 130.79 3.41406 129.748 4.52734C128.713 5.64062 127.831 6.58138 127.102 7.34961V7.39844C127.954 8.34245 128.798 9.25716 129.631 10.1426C130.471 11.028 131.258 11.8613 131.994 12.6426ZM138.096 14H132.734C132.728 13.6224 132.728 12.7826 132.734 11.4805C132.741 10.1784 132.744 8.68099 132.744 6.98828C132.744 6.21354 132.741 5.28255 132.734 4.19531C132.734 3.10156 132.734 2.01107 132.734 0.923828H138.096C138.096 1.76367 138.092 2.7207 138.086 3.79492C138.086 4.86263 138.086 5.92708 138.086 6.98828C138.086 8.65495 138.089 10.0384 138.096 11.1387C138.102 12.2389 138.102 13.1927 138.096 14Z" fill="#40CEAC"/>
</svg>
