<svg width="32" height="32" viewBox="0 0 32 32" fill="none" xmlns="http://www.w3.org/2000/svg">
<circle cx="16" cy="16" r="16" fill="#D9D9D9"/>
<path fill-rule="evenodd" clip-rule="evenodd" d="M12.0166 9.18756C12.2631 8.82228 12.5972 8.52277 12.989 8.31561C13.3809 8.10844 13.8185 8.00003 14.263 8H17.737C18.1815 8.00003 18.6191 8.10844 19.011 8.31561C19.4028 8.52277 19.7369 8.82228 19.9834 9.18756L20.7142 10.2711C20.7964 10.3928 20.9078 10.4926 21.0384 10.5616C21.169 10.6306 21.3149 10.6667 21.463 10.6667H22.3C23.0161 10.6667 23.7028 10.9476 24.2092 11.4477C24.7155 11.9478 25 12.6261 25 13.3333V21.3333C25 22.0406 24.7155 22.7189 24.2092 23.219C23.7028 23.719 23.0161 24 22.3 24H9.7C8.98392 24 8.29716 23.719 7.79081 23.219C7.28446 22.7189 7 22.0406 7 21.3333V13.3333C7 12.6261 7.28446 11.9478 7.79081 11.4477C8.29716 10.9476 8.98392 10.6667 9.7 10.6667H10.537C10.6851 10.6667 10.831 10.6306 10.9616 10.5616C11.0922 10.4926 11.2036 10.3928 11.2858 10.2711L12.0166 9.18756ZM14.2 16.8889C14.2 16.4174 14.3896 15.9652 14.7272 15.6318C15.0648 15.2984 15.5226 15.1111 16 15.1111C16.4774 15.1111 16.9352 15.2984 17.2728 15.6318C17.6104 15.9652 17.8 16.4174 17.8 16.8889C17.8 17.3604 17.6104 17.8126 17.2728 18.146C16.9352 18.4794 16.4774 18.6667 16 18.6667C15.5226 18.6667 15.0648 18.4794 14.7272 18.146C14.3896 17.8126 14.2 17.3604 14.2 16.8889ZM16 13.3333C15.0452 13.3333 14.1295 13.7079 13.4544 14.3747C12.7793 15.0415 12.4 15.9459 12.4 16.8889C12.4 17.8319 12.7793 18.7363 13.4544 19.403C14.1295 20.0698 15.0452 20.4444 16 20.4444C16.9548 20.4444 17.8705 20.0698 18.5456 19.403C19.2207 18.7363 19.6 17.8319 19.6 16.8889C19.6 15.9459 19.2207 15.0415 18.5456 14.3747C17.8705 13.7079 16.9548 13.3333 16 13.3333Z" fill="#E6E6E6"/>
</svg>
